/* XPM */
static char *noname[] = {
/* width height ncolors chars_per_pixel */
"48 48 3 1",
/* colors */
"  c #000000",
". c #B51515",
"X c None",
/* pixels */
"XXXXXXXXXXXXXXXXXXXXXXXXXXXXXXXXXXXXXXXXXXXXXXXX",
"XXXXXXXXXXXXXXXXXXXXXX  XXXXXXXXXXXXXXXXXXXXXXXX",
"XXXXXXXXXXXXXXXXXXXXXX  XXXXXXXXXXXXXXXXXXXXXXXX",
"XXXXXXXXXXXXXXXXXXXXX    XXXXXXXXXXXXXXXXXXXXXXX",
"XX   XXXXXXXXXXXXXXXX    XXXXXXXXXXXXXXXXXXXXXXX",
"X  .     XXXXXXXXXXX      XXXXXXXXXXXXXXXX    XX",
"X ......   XXXXXXXXX      XXXXXXXXXXXXXX   ..  X",
"X ........     XXXX        XXXXXXXXXX    ..... X",
"X ............              XXX       ........ X",
"X ...................           .............. X",
"X ............................................ X",
"X ...........................................  X",
"X  ........................................   XX",
"XX  ......  ............................    XXXX",
"XXX  ......        ...............       XXXXXXX",
"XXXX .......                         XXXXXXXXXXX",
"XXXX  ......                          XXXXXXXXXX",
"XXXXX  ......                          XXXXXXXXX",
"XXXXXX ......                           XXXXXXXX",
"XXXXXX  .....                            XXXXXXX",
"XX      ......                            XXXXXX",
"X  ...........                             XXXXX",
"X ...................                       XXXX",
"X .........................                  XXX",
"X ............................                XX",
"X  ............................               XX",
"X         .....................                X",
"X          .....   ............                X",
"X          .....         .....                 X",
"X          ......                              X",
"X          ......                              X",
"XX          ......                            XX",
"XX          ......   X X                     XXX",
"XXX          .....  XX XX                   XXXX",
"XXXX         .....  X   XX                 XXXXX",
"XXXXX        ...... X   XXX               XXXXXX",
"XXXXXXX      ...... X    XXX             XXXXXXX",
"XXXXXXXX      .....      XXXXX         XXXXXXXXX",
"XXXXXXXXXXX X .....       XXXXXX     XXXXXXXXXXX",
"XXXXXXXXXXXXX ......      XXXXXXXXXXXXXXXXXXXXXX",
"XXXXXXXXXXXXX  .....       XXXXXXXXXXXXXXXXXXXXX",
"XXXXXXXXXXXXXX ......      XXXXXXXXXXXXXXXXXXXXX",
"XXXXXXXXXXXXXX ......       XXXXXXXXXXXXXXXXXXXX",
"XXXXXXXXXXXXXX  .....       XXXXXXXXXXXXXXXXXXXX",
"XXXXXXXXXXXXXXX .....        XXXXXXXXXXXXXXXXXXX",
"XXXXXXXXXXXXX    ...           XXXXXXXXXXXXXXXXX",
"XXXXXXXXXXXX                    XXXXXXXXXXXXXXXX",
"XXXXXXXXXXXXXXXXXXXXXXXXXXXXXXXXXXXXXXXXXXXXXXXX"
};
