/* XPM */
static char *noname[] = {
/* width height ncolors chars_per_pixel */
"16 16 3 1",
/* colors */
"  c #000000",
". c #B51515",
"X c None",
/* pixels */
"XXXXXXXX XXXXXXX",
"XX.XXXXX XXXXXXX",
"X.....X   ...XXX",
"X...........XXXX",
"XX..  ....  XXXX",
"XX...        XXX",
"X  ..          X",
" .......        ",
"  .......       ",
"    ..          ",
"X   ...X X      ",
"XXX  ..X XX   XX",
"XXXXX...  XXXXXX",
"XXXXXX..  XXXXXX",
"XXXXXX..   XXXXX",
"XXXXX       XXXX"
};
