/* XPM */
static char *noname[] = {
/* width height ncolors chars_per_pixel */
"24 24 3 1",
/* colors */
"  c #000000",
". c #B51515",
"X c None",
/* pixels */
"XXXXXXXXXXX XXXXXXXXXXXX",
"XXXXXXXXXXX XXXXXXXXXXXX",
"     XXXXXX XXXXXX    XX",
" ...     XX  XXXX  .. XX",
" .......          ... XX",
" .................... XX",
" ..................   XX",
"  ...               XXXX",
"X .... X       XXXXXXXXX",
"X  ... X       XXXXXXXXX",
"   ...          XXXXXXXX",
" ........        XXXXXXX",
"  ............     XXXXX",
"X    .........       XXX",
"X    ..                X",
"     ..                 ",
"     ..                 ",
"     ...  X X           ",
"X     .. XX XX         X",
"XX    .. XX XXX       XX",
"XXXX  ..  X XXXX     XXX",
"XXXXX  ..    XXXXXXXXXXX",
"XXXXXX ..     XXXXXXXXXX",
"XXXXXX           XXXXXXX"
};
